<svg xmlns="http://www.w3.org/2000/svg" width="64" height="64" viewBox="0 0 64 64" role="img" aria-label="Docker">
  <defs>
    <linearGradient id="gd" x1="0" y1="0" x2="1" y2="1">
      <stop offset="0%" stop-color="#2563EB"/>
      <stop offset="100%" stop-color="#1D4ED8"/>
    </linearGradient>
  </defs>
  <rect rx="14" ry="14" width="64" height="64" fill="url(#gd)"/>
  <g transform="translate(10 16)" fill="#fff">
    <rect x="4" y="0" width="8" height="8" rx="1"/>
    <rect x="14" y="0" width="8" height="8" rx="1"/>
    <rect x="24" y="0" width="8" height="8" rx="1"/>
    <rect x="14" y="10" width="8" height="8" rx="1"/>
    <rect x="24" y="10" width="8" height="8" rx="1"/>
    <rect x="34" y="10" width="8" height="8" rx="1"/>
    <path d="M0 24h56v4a8 8 0 01-8 8H12a12 12 0 01-12-12v0z"/>
  </g>
</svg>

