<svg xmlns="http://www.w3.org/2000/svg" width="64" height="64" viewBox="0 0 64 64" role="img" aria-label="OpenAI">
  <defs>
    <linearGradient id="g" x1="0" y1="0" x2="1" y2="1">
      <stop offset="0%" stop-color="#4F46E5"/>
      <stop offset="100%" stop-color="#06B6D4"/>
    </linearGradient>
  </defs>
  <rect rx="14" ry="14" width="64" height="64" fill="url(#g)"/>
  <g fill="#fff" transform="translate(12 12)">
    <path d="M20 0C8.954 0 0 8.954 0 20s8.954 20 20 20 20-8.954 20-20S31.046 0 20 0zm0 6a14 14 0 110 28 14 14 0 010-28z" opacity=".25"/>
    <path d="M20.5 9c-3.59 0-6.5 2.91-6.5 6.5v11c0 .828.672 1.5 1.5 1.5h10c.828 0 1.5-.672 1.5-1.5v-11C27 11.91 24.09 9 20.5 9zm-2.5 6.5a2.5 2.5 0 115 0v2a2.5 2.5 0 11-5 0v-2z"/>
  </g>
</svg>

