<svg xmlns="http://www.w3.org/2000/svg" width="64" height="64" viewBox="0 0 64 64" role="img" aria-label="Vector DB">
  <defs>
    <linearGradient id="gv" x1="0" y1="0" x2="1" y2="1">
      <stop offset="0%" stop-color="#A855F7"/>
      <stop offset="100%" stop-color="#06B6D4"/>
    </linearGradient>
  </defs>
  <rect rx="14" ry="14" width="64" height="64" fill="url(#gv)"/>
  <g transform="translate(12 16)" fill="#fff">
    <ellipse cx="20" cy="4" rx="14" ry="4"/>
    <path d="M6 8v12c0 2.21 6.27 4 14 4s14-1.79 14-4V8c-3.47 2.2-9.25 3-14 3S9.47 10.2 6 8z"/>
    <path d="M6 20v8c0 2.21 6.27 4 14 4s14-1.79 14-4v-8c-3.47 2.2-9.25 3-14 3s-10.53-.8-14-3z" opacity=".9"/>
  </g>
</svg>

